<svg xmlns:dc="http://purl.org/dc/elements/1.1/" xmlns:cc="http://creativecommons.org/ns#" xmlns:rdf="http://www.w3.org/1999/02/22-rdf-syntax-ns#" xmlns:svg="http://www.w3.org/2000/svg" xmlns="http://www.w3.org/2000/svg" xmlns:sodipodi="http://sodipodi.sourceforge.net/DTD/sodipodi-0.dtd" xmlns:inkscape="http://www.inkscape.org/namespaces/inkscape" version="1.1" x="0px" y="0px" viewBox="0 0 100 125"><g transform="translate(0,-952.36218)"><path style="text-indent:0;text-transform:none;direction:ltr;block-progression:tb;baseline-shift:baseline;color:#000000;enable-background:accumulate;" d="m 10,959.36217 c -1.6321,0.0196 -2.9671,1.73579 -3,3 l 0,80.00003 c 2e-4,1.5707 1.4292,2.9998 3,3 l 80,0 c 1.5708,-2e-4 2.9998,-1.4293 3,-3 l 0,-80.00003 c -2e-4,-1.57075 -1.4292,-2.99984 -3,-3 l -80,0 z m 3,6 74,0 0,74.00003 -74,0 0,-74.00003 z m 37,9 c -8.3696,0 -15.2085,5.4516 -16.9062,12.25 a 2.9998388,3.0003 0 1 0 5.8124,1.46875 c 0.9118,-3.6505 5.4497,-7.71875 11.0938,-7.71875 2.7804,0 5.6925,1.021 7.75,2.6875 2.0576,1.6665 3.25,3.8125 3.25,6.3125 0,3.2833 -0.6688,4.75715 -1.5625,5.90625 -0.8936,1.1492 -2.3223,2.0426 -4.1875,3.375 -1.8652,1.3325 -4.0807,3.17218 -5.6875,6.15628 C 47.956,1007.7838 47,1011.7789 47,1017.3622 a 3,3.0004612 0 0 0 6,0 c 0,-4.9167 0.8257,-7.8277 1.8438,-9.7188 1.018,-1.8908 2.2719,-2.9262 3.9062,-4.0937 1.6342,-1.1675 3.7066,-2.368 5.4375,-4.59378 1.731,-2.2258 2.8125,-5.37705 2.8125,-9.59375 0,-4.5 -2.3104,-8.38515 -5.5,-10.96875 -3.1898,-2.5835 -7.2895,-4.03125 -11.5,-4.03125 z m 0.031,48.00003 c -2.2109,0 -4.0312,1.7909 -4.0312,4 0,2.2091 1.8204,4 4.0312,4 2.2108,0 4,-1.7909 4,-4 0,-2.2091 -1.7893,-4 -4,-4 z" fill="#000000" fill-opacity="1" stroke="none" marker="none" visibility="visible" display="inline" overflow="visible"/></g><text x="0" y="115" fill="#000000" font-size="5px" font-weight="bold" font-family="'Helvetica Neue', Helvetica, Arial-Unicode, Arial, Sans-serif">Created by unlimicon</text><text x="0" y="120" fill="#000000" font-size="5px" font-weight="bold" font-family="'Helvetica Neue', Helvetica, Arial-Unicode, Arial, Sans-serif">from the Noun Project</text></svg>