<svg xmlns="http://www.w3.org/2000/svg" data-name="Layer 1" width="100px" height="100px" fill="white" viewBox="0 0 32 40" x="0px" y="0px"><title>Fast Forward_1</title><path d="M18.85,13.4,6.5,6.27A3,3,0,0,0,2,8.87V23.13a3,3,0,0,0,4.5,2.6L18.85,18.6A3,3,0,0,0,18.85,13.4Z"/><path d="M28.5,13.4,16.15,6.27a3,3,0,0,0-4.41,1.87l7.61,4.39a4,4,0,0,1,0,6.93l-7.61,4.39a3,3,0,0,0,4.41,1.87L28.5,18.6A3,3,0,0,0,28.5,13.4Z"/><text x="0" y="47" fill="white" font-size="5px" font-weight="bold" font-family="'Helvetica Neue', Helvetica, Arial-Unicode, Arial, Sans-serif">Created by Thomas Davis</text><text x="0" y="52" fill="#000000" font-size="5px" font-weight="bold" font-family="'Helvetica Neue', Helvetica, Arial-Unicode, Arial, Sans-serif">from the Noun Project</text></svg>